<svg width="24" height="24" viewBox="0 0 24 24" fill="none" xmlns="http://www.w3.org/2000/svg">
<path fill-rule="evenodd" clip-rule="evenodd" d="M9.52363 15.7406C5.03897 15.7406 1.2088 16.4184 1.2088 19.1344C1.2088 21.8492 5.01447 22.5527 9.52363 22.5527C14.0083 22.5527 17.8385 21.8737 17.8385 19.1589C17.8385 16.4441 14.0328 15.7406 9.52363 15.7406Z" stroke="#ADB3CC" stroke-width="1.5" stroke-linecap="round" stroke-linejoin="round"/>
<path fill-rule="evenodd" clip-rule="evenodd" d="M9.52361 11.8669C12.4823 11.8669 14.8529 9.49505 14.8529 6.53755C14.8529 3.57888 12.4823 1.20822 9.52361 1.20822C6.56611 1.20822 4.19427 3.57888 4.19427 6.53755C4.19427 9.49505 6.56611 11.8669 9.52361 11.8669Z" stroke="#ADB3CC" stroke-width="1.5" stroke-linecap="round" stroke-linejoin="round"/>
<path d="M20.4048 8.11395V12.7923" stroke="#ADB3CC" stroke-width="1.5" stroke-linecap="round" stroke-linejoin="round"/>
<path d="M22.7917 10.453H18.02" stroke="#ADB3CC" stroke-width="1.5" stroke-linecap="round" stroke-linejoin="round"/>
</svg>
