<svg width="709" height="384" xmlns="http://www.w3.org/2000/svg" version="1.1" xml:space="preserve">
 <g>
  <title>Layer 1</title>
  <path d="m668.68521,375.47422l-630.2752,0c-20.08218,0 -36.3624,-11.856 -36.3624,-26.482l0,-317.794c0,-14.626 16.28022,-26.483 36.3624,-26.483l630.2752,0c20.08218,0 36.3624,11.857 36.3624,26.483l0,317.793c0,14.627 -16.28022,26.483 -36.3624,26.483z" fill="#E4EAF8" id="svg_1" stroke="null"/>
  <path d="m29.483,377.379l97.103,0l0,-370.758l-97.103,0c-14.626,0 -26.483,11.856 -26.483,26.482l0,317.793c0,14.627 11.857,26.483 26.483,26.483z" fill="#707487" id="svg_2"/>
  <path d="m197.207,50.759l-35.31,0c-4.879,0 -8.828,-3.948 -8.828,-8.828c0,-4.879 3.948,-8.828 8.828,-8.828l35.31,0c4.879,0 8.828,3.948 8.828,8.828c-0.001,4.879 -3.949,8.828 -8.828,8.828z" fill="#C7CFE2" id="svg_3"/>
  <path d="m91.276,50.759l-52.966,0c-4.879,0 -8.828,-3.948 -8.828,-8.828c0,-4.879 3.948,-8.828 8.828,-8.828l52.966,0c4.879,0 8.828,3.948 8.828,8.828c-0.001,4.879 -3.949,8.828 -8.828,8.828z" fill="#00C3FF" id="svg_4"/>
  <g id="svg_5">
   <path d="m91.276,139.034l-52.966,0c-4.879,0 -8.828,-3.948 -8.828,-8.828s3.948,-8.828 8.828,-8.828l52.966,0c4.879,0 8.828,3.948 8.828,8.828s-3.949,8.828 -8.828,8.828z" fill="#D5DCED" id="svg_6"/>
   <path d="m91.276,209.655l-52.966,0c-4.879,0 -8.828,-3.948 -8.828,-8.828c0,-4.879 3.948,-8.828 8.828,-8.828l52.966,0c4.879,0 8.828,3.948 8.828,8.828c-0.001,4.88 -3.949,8.828 -8.828,8.828z" fill="#D5DCED" id="svg_7"/>
   <path d="m91.276,280.276l-52.966,0c-4.879,0 -8.828,-3.948 -8.828,-8.828s3.948,-8.828 8.828,-8.828l52.966,0c4.879,0 8.828,3.948 8.828,8.828s-3.949,8.828 -8.828,8.828z" fill="#D5DCED" id="svg_8"/>
   <path d="m91.276,174.345l-52.966,0c-4.879,0 -8.828,-3.948 -8.828,-8.828s3.948,-8.828 8.828,-8.828l52.966,0c4.879,0 8.828,3.948 8.828,8.828s-3.949,8.828 -8.828,8.828z" fill="#D5DCED" id="svg_9"/>
   <path d="m91.276,244.966l-52.966,0c-4.879,0 -8.828,-3.948 -8.828,-8.828c0,-4.879 3.948,-8.828 8.828,-8.828l52.966,0c4.879,0 8.828,3.948 8.828,8.828c-0.001,4.879 -3.949,8.828 -8.828,8.828z" fill="#D5DCED" id="svg_10"/>
  </g>
  <g id="svg_11">
   <path d="m73.621,333.241l-35.311,0c-4.879,0 -8.828,-3.948 -8.828,-8.828s3.948,-8.828 8.828,-8.828l35.31,0c4.879,0 8.828,3.948 8.828,8.828s-3.948,8.828 -8.827,8.828z" fill="#959CB5" id="svg_12"/>
   <path d="m73.621,86.069l-35.311,0c-4.879,0 -8.828,-3.948 -8.828,-8.828s3.948,-8.828 8.828,-8.828l35.31,0c4.879,0 8.828,3.948 8.828,8.828s-3.948,8.828 -8.827,8.828z" fill="#959CB5" id="svg_13"/>
  </g>
  <path d="m267.828,50.759l-35.31,0c-4.879,0 -8.828,-3.948 -8.828,-8.828c0,-4.879 3.948,-8.828 8.828,-8.828l35.31,0c4.879,0 8.828,3.948 8.828,8.828c-0.001,4.879 -3.949,8.828 -8.828,8.828z" fill="#0c8bb2" id="svg_14"/>
  <g id="svg_15">
   <path d="m338.448,50.759l-35.31,0c-4.879,0 -8.828,-3.948 -8.828,-8.828c0,-4.879 3.948,-8.828 8.828,-8.828l35.31,0c4.879,0 8.828,3.948 8.828,8.828c0,4.879 -3.948,8.828 -8.828,8.828z" fill="#C7CFE2" id="svg_16"/>
   <path d="m409.069,50.759l-35.31,0c-4.879,0 -8.828,-3.948 -8.828,-8.828c0,-4.879 3.948,-8.828 8.828,-8.828l35.31,0c4.879,0 8.828,3.948 8.828,8.828c0,4.879 -3.949,8.828 -8.828,8.828z" fill="#C7CFE2" id="svg_17"/>
   <path d="m479.69,50.759l-35.31,0c-4.879,0 -8.828,-3.948 -8.828,-8.828c0,-4.879 3.948,-8.828 8.828,-8.828l35.31,0c4.879,0 8.828,3.948 8.828,8.828c-0.001,4.879 -3.949,8.828 -8.828,8.828z" fill="#C7CFE2" id="svg_18"/>
  </g>
  <text fill="#337da5" x="237.6504" y="216.36587" id="svg_23" stroke-width="0" font-size="21" font-family="'Inter'" text-anchor="start" xml:space="preserve" font-weight="bold" stroke="null" transform="matrix(5.08464 0 0 5.08464 -1044.63 -866.268)">Gordeev</text>
  <text fill="#42bbff" x="236.66704" y="215.16712" id="svg_25" stroke-width="0" font-size="21" font-family="'Inter'" text-anchor="start" xml:space="preserve" font-weight="bold" stroke="null" transform="matrix(5.08464 0 0 5.08464 -1044.63 -866.268)">Gordeev</text>
  <path d="m265.18284,47.53842l-35.31,0c-4.879,0 -8.828,-3.948 -8.828,-8.828c0,-4.879 3.948,-8.828 8.828,-8.828l35.31,0c4.879,0 8.828,3.948 8.828,8.828c-0.001,4.879 -3.949,8.828 -8.828,8.828z" fill="#00c3ff" id="svg_26"/>
 </g>

</svg>